<svg aria-hidden="true" style="position: absolute; width: 0; height: 0; overflow: hidden;" version="1.1" xmlns="http://www.w3.org/2000/svg" xmlns:xlink="http://www.w3.org/1999/xlink">
<defs>
<symbol id="icon-chevron-down" viewBox="0 0 32 32">
<path fill="none" stroke="#fff" style="stroke: var(--color1, #fff)" stroke-linejoin="round" stroke-linecap="round" stroke-miterlimit="4" stroke-width="3.2" d="M8 12l8 8 8-8"></path>
</symbol>
<symbol id="icon-close" viewBox="0 0 32 32">
<path stroke-linejoin="round" stroke-linecap="round" stroke-miterlimit="4" stroke-width="2.4" d="M24 8l-16 16"></path>
<path stroke-linejoin="round" stroke-linecap="round" stroke-miterlimit="4" stroke-width="2.4" d="M8 8l16 16"></path>
</symbol>
<symbol id="icon-heart" viewBox="0 0 32 32">
<path fill="none" stroke-linejoin="round" stroke-linecap="round" stroke-miterlimit="4" stroke-width="2.6667" d="M27.787 6.147c-0.681-0.681-1.49-1.222-2.38-1.591s-1.844-0.559-2.807-0.559c-0.963 0-1.917 0.19-2.807 0.559s-1.698 0.909-2.38 1.591l-1.413 1.413-1.413-1.413c-1.376-1.376-3.241-2.148-5.187-2.148s-3.811 0.773-5.187 2.148c-1.376 1.376-2.148 3.241-2.148 5.187s0.773 3.811 2.148 5.187l11.787 11.787 11.787-11.787c0.681-0.681 1.222-1.49 1.591-2.38s0.559-1.844 0.559-2.807c0-0.963-0.19-1.917-0.559-2.807s-0.909-1.699-1.591-2.38z"></path>
</symbol>
<symbol id="icon-user" viewBox="0 0 32 32">
<path d="M16 5.333c1.415 0 2.771 0.562 3.771 1.562s1.562 2.357 1.562 3.771-0.562 2.771-1.562 3.771c-1 1-2.357 1.562-3.771 1.562s-2.771-0.562-3.771-1.562c-1-1-1.562-2.357-1.562-3.771s0.562-2.771 1.562-3.771c1-1 2.357-1.562 3.771-1.562zM16 26.667c0 0 10.667 0 10.667-2.667 0-3.2-5.2-6.667-10.667-6.667s-10.667 3.467-10.667 6.667c0 2.667 10.667 2.667 10.667 2.667z"></path>
</symbol>
<symbol id="icon-active" viewBox="0 0 32 32">
<path  stroke-linejoin="round" stroke-linecap="round" stroke-miterlimit="4" stroke-width="1.7778" d="M27.787 6.147c-0.681-0.681-1.49-1.222-2.38-1.591s-1.844-0.559-2.807-0.559c-0.963 0-1.917 0.19-2.807 0.559s-1.698 0.909-2.38 1.591l-1.413 1.413-1.413-1.413c-1.376-1.376-3.241-2.148-5.187-2.148s-3.811 0.773-5.187 2.148c-1.376 1.376-2.148 3.241-2.148 5.187s0.773 3.811 2.148 5.187l11.787 11.787 11.787-11.787c0.681-0.681 1.222-1.49 1.591-2.38s0.559-1.844 0.559-2.807c0-0.963-0.19-1.917-0.559-2.807s-0.909-1.699-1.591-2.38z"></path>
</symbol>
<symbol id="icon-upload-avatar" viewBox="0 0 33 32">
<path d="M11.238 0.428l4.69 1.356c0.339 0.098 0.699 0.099 1.038 0.002l4.83-1.375c0.845-0.241 1.744 0.136 2.166 0.906l2.506 4.577c0.168 0.307 0.419 0.561 0.723 0.734l3.986 2.258c0.771 0.437 1.133 1.352 0.869 2.198l-1.381 4.428c-0.113 0.363-0.114 0.752-0.002 1.115l1.394 4.521c0.258 0.836-0.094 1.739-0.849 2.18l-4.443 2.597c-0.303 0.177-0.551 0.436-0.715 0.746l-2.114 4.004c-0.409 0.775-1.298 1.165-2.145 0.941l-4.863-1.284c-0.317-0.084-0.651-0.083-0.968 0.002l-4.715 1.264c-0.867 0.232-1.777-0.179-2.175-0.983l-2.106-4.256c-0.177-0.357-0.462-0.649-0.816-0.834l-4.304-2.247c-0.786-0.411-1.179-1.314-0.943-2.169l1.255-4.548c0.089-0.322 0.090-0.662 0.005-0.985l-1.288-4.843c-0.221-0.833 0.151-1.71 0.904-2.129l4.422-2.46c0.322-0.179 0.584-0.448 0.754-0.775l2.090-4.007c0.414-0.794 1.331-1.187 2.192-0.938z"></path>
<path fill="none" stroke="#efede8" style="stroke: var(--color2, #efede8)" stroke-linejoin="round" stroke-linecap="round" stroke-miterlimit="4" stroke-width="2" d="M16.5 10.75v10.5"></path>
<path fill="none" stroke="#efede8" style="stroke: var(--color2, #efede8)" stroke-linejoin="round" stroke-linecap="round" stroke-miterlimit="4" stroke-width="2" d="M11.25 16h10.5"></path>
</symbol>
</defs>
</svg>
